{"title":"The Beacon (PSP + Ipod touch + Zune)","uid":5654221,"size":392047059,"categoryP":"video","categoryS":"handheld","magnet":"?xt=urn:btih:943607c64f539fe399a8b2b3652060ab7776f27e&amp;dn=The+Beacon+%28PSP+%2B+Ipod+touch+%2B+Zune%29&amp;tr=udp%3A%2F%2Ftracker.openbittorrent.com%3A80&amp;tr=udp%3A%2F%2Fopen.demonii.com%3A1337&amp;tr=udp%3A%2F%2Ftracker.coppersurfer.tk%3A6969&amp;tr=udp%3A%2F%2Fexodus.desync.com%3A6969","seeders":0,"leechers":0,"uploader":"on.off.on","files":-1,"time":1277735203,"description":"The Beacon &lt;a href=&quot;\nhttp://www.imdb.com/title/tt1190910/&quot; rel=&quot;nofollow&quot; target=&quot;_NEW&quot;&gt;\nhttp://www.imdb.com/title/tt1190910/&lt;/a&gt;\n\nSource  :\n\nthe.beacon.2009.1080p.bluray.x264-thugline\n\n\nInfo    :\n\nID                               : 1\nFormat                           : AVC\nFormat/Info                      : Advanced Video Codec\nFormat profile                   : &lt;a class=&quot;__cf_email__&quot; href=&quot;/cdn-cgi/l/email-protection&quot; data-cfemail=&quot;7d3f1c0e18111413183d314f534c&quot;&gt;[email&amp;#160;protected]&lt;/a&gt;&lt;script cf-hash='f9e31' type=&quot;text/javascript&quot;&gt;\n/* &lt;![CDATA[ */!function(){try{var t=&quot;currentScript&quot;in document?document.currentScript:function(){for(var t=document.getElementsByTagName(&quot;script&quot;),e=t.length;e--;)if(t[e].getAttribute(&quot;cf-hash&quot;))return t[e]}();if(t&amp;&amp;t.previousSibling){var e,r,n,i,c=t.previousSibling,a=c.getAttribute(&quot;data-cfemail&quot;);if(a){for(e=&quot;&quot;,r=parseInt(a.substr(0,2),16),n=2;a.length-n;n+=2)i=parseInt(a.substr(n,2),16)^r,e+=String.fromCharCode(i);e=document.createTextNode(e),c.parentNode.replaceChild(e,c)}}}catch(u){}}();/* ]]&gt; */&lt;/script&gt;\nFormat settings, CABAC           : No\nFormat settings, ReFrames        : 3 frames\nCodec ID                         : avc1\nCodec ID/Info                    : Advanced Video Coding\nDuration                         : 1h 38mn\nBit rate mode                    : Variable\nBit rate                         : 400 Kbps\nWidth                            : 480 pixels\nHeight                           : 272 pixels\nDisplay aspect ratio             : 16:9\nFrame rate mode                  : Variable\nFrame rate                       : 23.976 fps\nMinimum frame rate               : 23.810 fps\nMaximum frame rate               : 24.390 fps\nColor space                      : YUV\nChroma subsampling               : 4:2:0\nBit depth                        : 8 bits\nScan type                        : Progressive\nBits/(Pixel*Frame)               : 0.128\nStream size                      : 281 MiB (75%)\nWriting library                  : x264 core 79\n\nID                               : 2\nFormat                           : AAC\nFormat/Info                      : Advanced Audio Codec\nFormat version                   : Version 4\nFormat profile                   : LC\nFormat settings, SBR             : No\nCodec ID                         : 40\nDuration                         : 1h 38mn\nBit rate mode                    : Variable\nBit rate                         : 128 Kbps\nMaximum bit rate                 : 212 Kbps\nChannel(s)                       : 2 channels\nChannel positions                : Front: L R\nSampling rate                    : 48.0 KHz\nStream size                      : 89.9 MiB (24%)\nLanguage                         : English\n\nScreens :  &lt;a href=&quot;\nhttp://img706.imageshack.us/img706/6453/vlcsnap00001b.png&quot; rel=&quot;nofollow&quot; target=&quot;_NEW&quot;&gt;\nhttp://img706.imageshack.us/img706/6453/vlcsnap00001b.png&lt;/a&gt; &lt;a href=&quot;\nhttp://img227.imageshack.us/img227/2008/vlcsnap00002f.png&quot; rel=&quot;nofollow&quot; target=&quot;_NEW&quot;&gt;\nhttp://img227.imageshack.us/img227/2008/vlcsnap00002f.png&lt;/a&gt; &lt;a href=&quot;\nhttp://img821.imageshack.us/img821/5722/vlcsnap00004o.png&quot; rel=&quot;nofollow&quot; target=&quot;_NEW&quot;&gt;\nhttp://img821.imageshack.us/img821/5722/vlcsnap00004o.png&lt;/a&gt; &lt;a href=&quot;\nhttp://img156.imageshack.us/img156/7746/vlcsnap00005as.png&quot; rel=&quot;nofollow&quot; target=&quot;_NEW&quot;&gt;\nhttp://img156.imageshack.us/img156/7746/vlcsnap00005as.png&lt;/a&gt; &lt;a href=&quot;\nhttp://img203.imageshack.us/img203/3051/vlcsnap00006z.png&quot; rel=&quot;nofollow&quot; target=&quot;_NEW&quot;&gt;\nhttp://img203.imageshack.us/img203/3051/vlcsnap00006z.png&lt;/a&gt; &lt;a href=&quot;\nhttp://img705.imageshack.us/img705/7919/vlcsnap00007f.png&quot; rel=&quot;nofollow&quot; target=&quot;_NEW&quot;&gt;\nhttp://img705.imageshack.us/img705/7919/vlcsnap00007f.png&lt;/a&gt;\n\n\nPLEASE LET THE TORRENT SEED AND SHARE IT WITH ALL YOU KNOW!\n\nLet me know what I can do to be your trusted source of Handheld videos. &lt;a href=&quot;\nhttp://thepiratebay.se/user/on.off.on/&quot; rel=&quot;nofollow&quot; target=&quot;_NEW&quot;&gt;\nhttp://thepiratebay.se/user/on.off.on/&lt;/a&gt; -OOO","torrent":{"xt":"urn:btih:943607c64f539fe399a8b2b3652060ab7776f27e","amp;dn":"The+Beacon+%28PSP+%2B+Ipod+touch+%2B+Zune%29","amp;tr":["udp%3A%2F%2Ftracker.openbittorrent.com%3A80","udp%3A%2F%2Fopen.demonii.com%3A1337","udp%3A%2F%2Ftracker.coppersurfer.tk%3A6969","udp%3A%2F%2Fexodus.desync.com%3A6969"],"infoHash":"943607c64f539fe399a8b2b3652060ab7776f27e","infoHashBuffer":{"type":"Buffer","data":[148,54,7,198,79,83,159,227,153,168,178,179,101,32,96,171,119,118,242,126]},"announce":[],"urlList":[]}}